<svg width="20" height="20" viewBox="0 0 20 20" fill="none" xmlns="http://www.w3.org/2000/svg">
<path d="M12.8983 10.7417L14.1608 17.8467C14.1749 17.9303 14.1632 18.0163 14.1271 18.0931C14.0911 18.1699 14.0324 18.2339 13.959 18.2765C13.8857 18.3191 13.801 18.3382 13.7164 18.3314C13.6319 18.3246 13.5514 18.2921 13.4858 18.2383L10.5024 15.9992C10.3584 15.8916 10.1835 15.8334 10.0037 15.8334C9.82391 15.8334 9.64896 15.8916 9.50494 15.9992L6.5166 18.2375C6.45104 18.2912 6.37065 18.3236 6.28618 18.3305C6.20171 18.3373 6.11716 18.3182 6.04382 18.2757C5.97048 18.2333 5.91183 18.1694 5.8757 18.0928C5.83957 18.0161 5.82768 17.9303 5.8416 17.8467L7.10327 10.7417" stroke="#666666" stroke-width="1.66667" stroke-linecap="round" stroke-linejoin="round"/>
<path d="M10 11.6667C12.7614 11.6667 15 9.42808 15 6.66666C15 3.90523 12.7614 1.66666 10 1.66666C7.23858 1.66666 5 3.90523 5 6.66666C5 9.42808 7.23858 11.6667 10 11.6667Z" stroke="#666666" stroke-width="1.66667" stroke-linecap="round" stroke-linejoin="round"/>
</svg>

