<svg width="48" height="48" viewBox="0 0 48 48" fill="none" xmlns="http://www.w3.org/2000/svg">
<path d="M0 14C0 6.26801 6.26801 0 14 0H34C41.732 0 48 6.26801 48 14V34C48 41.732 41.732 48 34 48H14C6.26801 48 0 41.732 0 34V14Z" fill="#DFE4EA"/>
<g clip-path="url(#clip0_1754_1183)">
<path d="M27.4748 24.8018L28.9898 32.7061C29.0068 32.7991 28.9927 32.8948 28.9494 32.9803C28.9062 33.0657 28.8358 33.1369 28.7477 33.1843C28.6597 33.2317 28.5581 33.253 28.4566 33.2454C28.3551 33.2378 28.2585 33.2016 28.1798 33.1418L24.5998 30.6507C24.427 30.531 24.217 30.4663 24.0013 30.4663C23.7856 30.4663 23.5756 30.531 23.4028 30.6507L19.8168 33.1409C19.7381 33.2006 19.6417 33.2367 19.5403 33.2443C19.4389 33.2519 19.3375 33.2306 19.2495 33.1834C19.1614 33.1362 19.0911 33.0652 19.0477 32.9799C19.0044 32.8946 18.9901 32.7991 19.0068 32.7061L20.5208 24.8018" stroke="#1F6495" stroke-width="1.9257" stroke-linecap="round" stroke-linejoin="round"/>
</g>
<g clip-path="url(#clip1_1754_1183)">
<path d="M23.9998 25.9987C27.3061 25.9987 29.9864 23.3094 29.9864 19.992C29.9864 16.6746 27.3061 13.9854 23.9998 13.9854C20.6935 13.9854 18.0132 16.6746 18.0132 19.992C18.0132 23.3094 20.6935 25.9987 23.9998 25.9987Z" stroke="#1F6495" stroke-width="1.99888" stroke-linecap="round" stroke-linejoin="round"/>
</g>
<defs>
<clipPath id="clip0_1754_1183">
<rect width="12" height="11.125" fill="white" transform="translate(18 23.875)"/>
</clipPath>
<clipPath id="clip1_1754_1183">
<rect width="13.9688" height="14.0156" fill="white" transform="translate(17.0156 12.9844)"/>
</clipPath>
</defs>
</svg>

