<svg width="16" height="16" viewBox="0 0 16 16" fill="none" xmlns="http://www.w3.org/2000/svg">
<path d="M2 4H3.33333H14" stroke="#DC2626" stroke-width="1.3" stroke-linecap="round" stroke-linejoin="round"/>
<path d="M5.33594 4.00065V2.66732C5.33594 2.31369 5.47642 1.97456 5.72647 1.72451C5.97652 1.47446 6.31565 1.33398 6.66928 1.33398H9.33594C9.68957 1.33398 10.0287 1.47446 10.2787 1.72451C10.5288 1.97456 10.6693 2.31369 10.6693 2.66732V4.00065M12.6693 4.00065V13.334C12.6693 13.6877 12.5288 14.0268 12.2787 14.2768C12.0287 14.5269 11.6896 14.6674 11.3359 14.6674H4.66928C4.31565 14.6674 3.97652 14.5269 3.72647 14.2768C3.47642 14.0268 3.33594 13.6877 3.33594 13.334V4.00065H12.6693Z" stroke="#DC2626" stroke-width="1.3" stroke-linecap="round" stroke-linejoin="round"/>
</svg>
