<svg width="40" height="40" viewBox="0 0 40 40" fill="none" xmlns="http://www.w3.org/2000/svg">
<path d="M0 10C0 4.47715 4.47715 0 10 0H30C35.5228 0 40 4.47715 40 10V30C40 35.5228 35.5228 40 30 40H10C4.47715 40 0 35.5228 0 30V10Z" fill="#C0E6F9"/>
<path d="M25.8333 19.1665H14.1667C13.2462 19.1665 12.5 19.9127 12.5 20.8332V26.6665C12.5 27.587 13.2462 28.3332 14.1667 28.3332H25.8333C26.7538 28.3332 27.5 27.587 27.5 26.6665V20.8332C27.5 19.9127 26.7538 19.1665 25.8333 19.1665Z" stroke="#030C2B" stroke-width="1.66667" stroke-linecap="round" stroke-linejoin="round"/>
<path d="M15.8359 19.1665V15.8332C15.8359 14.7281 16.2749 13.6683 17.0563 12.8869C17.8377 12.1055 18.8975 11.6665 20.0026 11.6665C21.1077 11.6665 22.1675 12.1055 22.9489 12.8869C23.7303 13.6683 24.1693 14.7281 24.1693 15.8332V19.1665" stroke="#030C2B" stroke-width="1.66667" stroke-linecap="round" stroke-linejoin="round"/>
</svg>
